<svg width="150" height="44" xmlns="http://www.w3.org/2000/svg" viewBox="0 0 1034.61 188.11"><defs><style>.cls-1,.cls-3{fill:#1d1819;}.cls-1,.cls-2,.cls-4,.cls-5,.cls-6{fill-rule:evenodd;}.cls-2{fill:#fff000;}.cls-3{font-size:17.4px;font-family:Impact;}.cls-4{fill:#d7995b;}.cls-5{fill:#332c2b;}.cls-6{fill:#009b4c;}</style></defs><title>Asset 1</title><g id="Layer_2" data-name="Layer 2"><g id="Layer_1-2" data-name="Layer 1"><path class="cls-1" d="M62.67,0l62.67,26.08V129.62c0,34.47-28.2,58.49-62.67,58.49C30.08,188.11,0,165,0,129.62V26.08Z"/><path class="cls-2" d="M62.67,2.73l-60.15,25V129.62c0,33.26,28.16,56,60.15,56,32.43,0,60.15-22.33,60.15-56V27.76Z"/><text class="cls-3" transform="translate(11.31 43.77) scale(1.07 1)">BANJARMASIN</text><path class="cls-1" d="M26.63,152.6l-5.13.94-3.71,5-2-3,3.05-3.68L15,154.33l-1.91-3,8.93-5.81,1.92,3-3.47,2.25,4.33-.93,1.79,2.75Zm4.46,4.6-3.59-3.6-8.79,6.27,2.57,2.58,1.48-1.22.9.89-1.22,1.49L25,166.15l6.11-9Zm-6.16,3.52q1.09-1.46,2.79-3.55-2.53,1.82-3.64,2.71l.85.84Zm13,1.57L32,166.49l-2.16,3.2-2.69-1.82,2.16-3.19,1.75-7,2.67,1.8a40.07,40.07,0,0,1-1.64,4q1.2-1.25,3.16-2.94l2.67,1.8Zm7.37,3.58-3.21-1.44-3.19,7.18a3.43,3.43,0,0,1-.5.88.41.41,0,0,1-.47,0c-.18-.08-.27-.19-.27-.34a2.5,2.5,0,0,1,.28-.85l3.25-7.3L38,162.6l-2.56,5.76a20,20,0,0,0-.89,2.2,2.08,2.08,0,0,0,.06,1.2,3.19,3.19,0,0,0,.93,1.31,6.7,6.7,0,0,0,1.82,1.16,6,6,0,0,0,1.84.52,3.05,3.05,0,0,0,1.5-.18,2.18,2.18,0,0,0,1-.68,9.7,9.7,0,0,0,.79-1.52l2.89-6.5Zm8.47,2.37-2.39,10.38-3.43-.79,1-4.36-1-.23-1,4.36-3.43-.8,2.4-10.38,3.43.8-.86,3.71,1,.23.85-3.71,3.43.79Zm3.57.72h3.5a11.39,11.39,0,0,1,2.51.2,2.53,2.53,0,0,1,1.37.82,3.12,3.12,0,0,1,.53,2,1.8,1.8,0,0,1-.37,1.3,3,3,0,0,1-1.47.56,2.89,2.89,0,0,1,1.66.72,2.33,2.33,0,0,1,.43,1.55v1a3.18,3.18,0,0,1-.31,1.6,1.65,1.65,0,0,1-1,.71,12.72,12.72,0,0,1-2.8.19H57.32V169Zm3.52,1.81v2.38h.34a.8.8,0,0,0,.65-.2,2.76,2.76,0,0,0,.14-1.15,1.43,1.43,0,0,0-.12-.7.5.5,0,0,0-.3-.26,4.07,4.07,0,0,0-.71-.06Zm0,4v3a1.76,1.76,0,0,0,.93-.18c.13-.11.2-.38.2-.82v-1c0-.46-.06-.74-.18-.83a2,2,0,0,0-.95-.17Zm11.9-6.55,3.47,10.27-3.55.5-.46-1.86-1.25.17.08,1.92-3.6.51.28-10.8,5-.71Zm-.89,7.05c-.34-1.17-.72-2.63-1.15-4.37-.06,2.08-.07,3.59,0,4.54l1.18-.17Zm7-8.69-3.4.91,2.76,10.29,3.39-.91-2.75-10.29ZM89.43,162l4.67,9.57-2.76,1.35-3.16-6.46,2,7-1.93.94-4.24-5.75L87.13,175l-2.76,1.35-4.67-9.57,4.08-2c.4.53.85,1.15,1.37,1.86l1.63,2.21L85.32,164l4.11-2Zm.64-.77,6.41,8.51,3.24-2.44a12.2,12.2,0,0,0,2.12-1.84,1.59,1.59,0,0,0,.37-1.16,3.14,3.14,0,0,0-.71-1.47l-.6-.79a2.26,2.26,0,0,0-1.28-1,2.79,2.79,0,0,0-1.75.42,2.93,2.93,0,0,0,.83-1.34,1.84,1.84,0,0,0-.49-1.26,3.08,3.08,0,0,0-1.62-1.28,2.55,2.55,0,0,0-1.6.17,11,11,0,0,0-2.13,1.35l-2.79,2.1Zm3.91-.66,1.42,1.89.27-.21c.27-.2.4-.39.4-.55a2.73,2.73,0,0,0-.58-1,1.58,1.58,0,0,0-.52-.49.54.54,0,0,0-.39,0,3.45,3.45,0,0,0-.6.39Zm2.42,3.21a2.12,2.12,0,0,1,.85-.44c.16,0,.37.2.65.56l.6.8c.26.34.37.6.33.77a1.76,1.76,0,0,1-.63.7l-1.8-2.39Zm3.81-12.37,9.63,5-2.21,2.83-1.62-1-.78,1,1.39,1.33-2.24,2.86-7.3-8,3.13-4Zm4.25,5.69-.73.94c-.69-.66-1.73-1.75-3.13-3.29q2.28,1.44,3.86,2.35Zm-1.08-10.87-1.76,3.05,9.22,5.33,1.76-3Z"/><path class="cls-1" d="M57,77.5h1.32v3.74H67V77.5h1.32V93.29h5.12V77.5h1.32V93.29H85.38V80.07l-15.92-8.9.61-1.09L86,79h0c2.13,0,4.06-1.12,5.89-2.83-.65,3.62-2.25,5.88-5.23,6.18v11a3.61,3.61,0,0,0,2.29-.8c-.3,1.62-1,2.44-2.29,2.59V98.4H85.38V95.1H80.6v3.3H79.28V95.1H74.77v2.1h.35v0l.12,0a3.9,3.9,0,0,0,2.82-.81C77.73,98.21,76.9,99,75.3,99h-.53v3.51H73.45V99h-2v3.51H70.15V99H68.33v3.51H67v-1.17H58.33v1.17H57V99H55.2v3.51H53.88V99h-2v3.51H50.58V99h-.53c-1.6,0-2.43-.81-2.77-2.63a3.9,3.9,0,0,0,2.82.81l.12,0v0h.36V95.1H46.07v3.3H44.75V95.1H40v3.3H38.64V95.07c-1.29-.15-2-1-2.28-2.59a3.58,3.58,0,0,0,2.28.8v-11c-3-.3-4.58-2.56-5.22-6.18C35.25,77.86,37.17,79,39.3,79h0l16-8.91.61,1.09L40,80.07V93.29H50.58V77.5H51.9V93.29H57V77.5Zm10,23V99H58.33v1.45Zm0-2.33V96.78H58.33v1.37Zm0-2.25V94.06H58.33V95.9ZM58.33,82.12V93.18H62V82.12Zm5,0V93.18H67V82.12Zm8.79,1.1H69.49v7.32h2.64V83.22Zm10.45,0H77.3v7.32h5.28V83.22Zm-29.36,0v7.32h2.64V83.22Zm-10.45,0v7.32h5.28V83.22Z"/><path class="cls-4" d="M54.74,46.31a8.9,8.9,0,0,1,6.42,2.2H64.1a8.9,8.9,0,0,1,6.42-2.2,30.93,30.93,0,0,0-2.85,4.77c1.26,8.52,2.81,16.89,6.23,26l3.22-1.25.82.71-3.36,2.3H50.68l-3.36-2.3.83-.71,3.21,1.25c3.43-9.14,5-17.51,6.23-26A30.93,30.93,0,0,0,54.74,46.31Z"/><path class="cls-5" d="M51.46,128.31a1.55,1.55,0,0,1,.6-.41,4.38,4.38,0,0,1,1.64-.29,4.3,4.3,0,0,1,1.64.29,1.41,1.41,0,0,1,.6.41,1.52,1.52,0,0,1,.61-.41,4.3,4.3,0,0,1,1.64-.29,4.38,4.38,0,0,1,1.64.29,1.55,1.55,0,0,1,.6.41,1.55,1.55,0,0,1,.6-.41,4.38,4.38,0,0,1,1.64-.29,4.3,4.3,0,0,1,1.64.29,1.47,1.47,0,0,1,.6.41,1.52,1.52,0,0,1,.61-.41,4.75,4.75,0,0,1,3.27,0,1.52,1.52,0,0,1,.61.41,1.55,1.55,0,0,1,.6-.41,4.38,4.38,0,0,1,1.64-.29,4.3,4.3,0,0,1,1.64.29,1.47,1.47,0,0,1,.6.41,1.52,1.52,0,0,1,.61-.41,4.75,4.75,0,0,1,3.27,0c.47.19.76.48.76.8h-.3c0-.19-.22-.38-.57-.53a4.44,4.44,0,0,0-3.05,0c-.35.15-.57.34-.57.53h-.3c0-.19-.21-.38-.56-.53a4.15,4.15,0,0,0-1.53-.27,4.06,4.06,0,0,0-1.52.27c-.35.15-.57.34-.57.53h-.3c0-.19-.22-.38-.57-.53a4.44,4.44,0,0,0-3.05,0c-.35.15-.57.34-.57.53h-.3c0-.19-.21-.38-.56-.53a4.15,4.15,0,0,0-1.53-.27,4.1,4.1,0,0,0-1.52.27c-.35.15-.57.34-.57.53h-.3c0-.19-.22-.38-.57-.53a4.44,4.44,0,0,0-3.05,0c-.35.15-.57.34-.57.53H55.8c0-.19-.22-.38-.57-.53a4.15,4.15,0,0,0-1.53-.27,4.1,4.1,0,0,0-1.52.27c-.35.15-.57.34-.57.53h-.3c0-.19-.22-.38-.57-.53a4.44,4.44,0,0,0-3.05,0c-.35.15-.57.34-.57.53h-.29c0-.32.28-.61.75-.8a4.3,4.3,0,0,1,1.64-.29,4.38,4.38,0,0,1,1.64.29A1.55,1.55,0,0,1,51.46,128.31Z"/><path class="cls-5" d="M51.46,126.82a1.56,1.56,0,0,1,.6-.42,4.38,4.38,0,0,1,1.64-.29,4.3,4.3,0,0,1,1.64.29,1.42,1.42,0,0,1,.6.42,1.53,1.53,0,0,1,.61-.42,4.3,4.3,0,0,1,1.64-.29,4.38,4.38,0,0,1,1.64.29,1.56,1.56,0,0,1,.6.42,1.56,1.56,0,0,1,.6-.42,4.38,4.38,0,0,1,1.64-.29,4.3,4.3,0,0,1,1.64.29,1.49,1.49,0,0,1,.6.42,1.53,1.53,0,0,1,.61-.42,4.75,4.75,0,0,1,3.27,0,1.53,1.53,0,0,1,.61.42,1.56,1.56,0,0,1,.6-.42,4.38,4.38,0,0,1,1.64-.29,4.3,4.3,0,0,1,1.64.29,1.4,1.4,0,0,1,.6.42,1.53,1.53,0,0,1,.61-.42,4.75,4.75,0,0,1,3.27,0c.47.2.76.48.76.81h-.3c0-.2-.22-.39-.57-.54a4.6,4.6,0,0,0-3.05,0c-.35.15-.57.34-.57.54h-.3c0-.2-.21-.39-.56-.54a4.17,4.17,0,0,0-1.53-.26,4.07,4.07,0,0,0-1.52.26c-.35.15-.57.34-.57.54h-.3c0-.2-.22-.39-.57-.54a4.6,4.6,0,0,0-3.05,0c-.35.15-.57.34-.57.54h-.3c0-.2-.21-.39-.56-.54a4.17,4.17,0,0,0-1.53-.26,4.11,4.11,0,0,0-1.52.26c-.35.15-.57.34-.57.54h-.3c0-.2-.22-.39-.57-.54a4.6,4.6,0,0,0-3.05,0c-.35.15-.57.34-.57.54H55.8c0-.2-.22-.39-.57-.54a4.17,4.17,0,0,0-1.53-.26,4.11,4.11,0,0,0-1.52.26c-.35.15-.57.34-.57.54h-.3c0-.2-.22-.39-.57-.54a4.6,4.6,0,0,0-3.05,0c-.35.15-.57.34-.57.54h-.29c0-.33.28-.61.75-.81a4.3,4.3,0,0,1,1.64-.29,4.38,4.38,0,0,1,1.64.29A1.46,1.46,0,0,1,51.46,126.82Z"/><path class="cls-5" d="M51.46,125.26a1.56,1.56,0,0,1,.6-.42,4.38,4.38,0,0,1,1.64-.29,4.3,4.3,0,0,1,1.64.29,1.42,1.42,0,0,1,.6.42,1.53,1.53,0,0,1,.61-.42,4.3,4.3,0,0,1,1.64-.29,4.38,4.38,0,0,1,1.64.29,1.56,1.56,0,0,1,.6.42,1.56,1.56,0,0,1,.6-.42,4.38,4.38,0,0,1,1.64-.29,4.3,4.3,0,0,1,1.64.29,1.49,1.49,0,0,1,.6.42,1.53,1.53,0,0,1,.61-.42,4.75,4.75,0,0,1,3.27,0,1.53,1.53,0,0,1,.61.42,1.56,1.56,0,0,1,.6-.42,4.38,4.38,0,0,1,1.64-.29,4.3,4.3,0,0,1,1.64.29,1.49,1.49,0,0,1,.6.42,1.53,1.53,0,0,1,.61-.42,4.75,4.75,0,0,1,3.27,0c.47.2.76.48.76.81h-.3c0-.2-.22-.39-.57-.54a4.6,4.6,0,0,0-3.05,0c-.35.15-.57.34-.57.54h-.3c0-.2-.21-.39-.56-.54a4.17,4.17,0,0,0-1.53-.26,4.07,4.07,0,0,0-1.52.26c-.35.15-.57.34-.57.54h-.3c0-.2-.22-.39-.57-.54a4.6,4.6,0,0,0-3.05,0c-.35.15-.57.34-.57.54h-.3c0-.2-.21-.39-.56-.54a4.17,4.17,0,0,0-1.53-.26,4.11,4.11,0,0,0-1.52.26c-.35.15-.57.34-.57.54h-.3c0-.2-.22-.39-.57-.54a4.6,4.6,0,0,0-3.05,0c-.35.15-.57.34-.57.54H55.8c0-.2-.22-.39-.57-.54a4.17,4.17,0,0,0-1.53-.26,4.11,4.11,0,0,0-1.52.26c-.35.15-.57.34-.57.54h-.3c0-.2-.22-.39-.57-.54a4.6,4.6,0,0,0-3.05,0c-.35.15-.57.34-.57.54h-.29c0-.33.28-.61.75-.81a4.3,4.3,0,0,1,1.64-.29,4.38,4.38,0,0,1,1.64.29A1.56,1.56,0,0,1,51.46,125.26Z"/><path class="cls-5" d="M51.46,124a1.67,1.67,0,0,1,.6-.42,4.38,4.38,0,0,1,1.64-.29,4.3,4.3,0,0,1,1.64.29,1.51,1.51,0,0,1,.6.42,1.63,1.63,0,0,1,.61-.42,4.3,4.3,0,0,1,1.64-.29,4.38,4.38,0,0,1,1.64.29,1.67,1.67,0,0,1,.6.42,1.67,1.67,0,0,1,.6-.42,4.38,4.38,0,0,1,1.64-.29,4.3,4.3,0,0,1,1.64.29,1.59,1.59,0,0,1,.6.42,1.63,1.63,0,0,1,.61-.42,4.5,4.5,0,0,1,1.64-.29,4.28,4.28,0,0,1,1.63.29,1.63,1.63,0,0,1,.61.42,1.67,1.67,0,0,1,.6-.42,4.38,4.38,0,0,1,1.64-.29,4.3,4.3,0,0,1,1.64.29,1.59,1.59,0,0,1,.6.42,1.63,1.63,0,0,1,.61-.42,4.75,4.75,0,0,1,3.27,0c.47.2.76.48.76.81h-.3c0-.2-.22-.39-.57-.53a4.44,4.44,0,0,0-3.05,0c-.35.14-.57.33-.57.53h-.3c0-.2-.21-.39-.56-.53a4,4,0,0,0-1.53-.27,3.87,3.87,0,0,0-1.52.27c-.35.14-.57.33-.57.53h-.3c0-.2-.22-.39-.57-.53a4.44,4.44,0,0,0-3.05,0c-.35.14-.57.33-.57.53h-.3c0-.2-.21-.39-.56-.53a4,4,0,0,0-1.53-.27,3.9,3.9,0,0,0-1.52.27c-.35.14-.57.33-.57.53h-.3c0-.2-.22-.39-.57-.53a4.44,4.44,0,0,0-3.05,0c-.35.14-.57.33-.57.53H55.8c0-.2-.22-.39-.57-.53a4,4,0,0,0-1.53-.27,3.9,3.9,0,0,0-1.52.27c-.35.14-.57.33-.57.53h-.3c0-.2-.22-.39-.57-.53a4.44,4.44,0,0,0-3.05,0c-.35.14-.57.33-.57.53h-.29c0-.33.28-.61.75-.81a4.3,4.3,0,0,1,1.64-.29,4.38,4.38,0,0,1,1.64.29A1.67,1.67,0,0,1,51.46,124Z"/><path class="cls-1" d="M51.28,123.86h0a1.69,1.69,0,0,1,.56-.36,4.77,4.77,0,0,1,3.33,0,1.8,1.8,0,0,1,.56.36h0a1.74,1.74,0,0,1,.57-.36,4.74,4.74,0,0,1,3.32,0,1.59,1.59,0,0,1,.56.36h0a1.69,1.69,0,0,1,.56-.36,4.77,4.77,0,0,1,3.33,0,1.8,1.8,0,0,1,.56.36h0a1.74,1.74,0,0,1,.57-.36,4.4,4.4,0,0,1,1.66-.3,4.25,4.25,0,0,1,1.66.3,1.59,1.59,0,0,1,.56.36h0a1.69,1.69,0,0,1,.56-.36,4.25,4.25,0,0,1,1.66-.3,4.3,4.3,0,0,1,1.67.3,1.8,1.8,0,0,1,.56.36h0a1.74,1.74,0,0,1,.57-.36,4.74,4.74,0,0,1,3.32,0,1.94,1.94,0,0,1,.43.24l5.69-7.85,3-.79.77-1.32-5.47.24-7.16,6.37h-.14v-6.75H76.5c2.3,0,4.66-.54,4.66-3H57.41c0,2.51,2.35,3,4.66,3h2v6.75H50.41L43.25,114l-5.47-.24.78,1.32,3,.79,5.59,7.71a1,1,0,0,1,.21-.1,4.74,4.74,0,0,1,3.32,0,1.59,1.59,0,0,1,.56.36Zm13.56-10.22H74v6.75H64.84Z"/><path class="cls-1" d="M51.3,125.16a2,2,0,0,1,.58-.38,4.92,4.92,0,0,1,3.33,0,2,2,0,0,1,.58.38,1.77,1.77,0,0,1,.58-.38,4.9,4.9,0,0,1,3.32,0,1.88,1.88,0,0,1,.58.38,2,2,0,0,1,.58-.38,4.92,4.92,0,0,1,3.33,0,2,2,0,0,1,.58.38,1.77,1.77,0,0,1,.58-.38,4.9,4.9,0,0,1,3.32,0,1.88,1.88,0,0,1,.58.38,2,2,0,0,1,.58-.38,4.45,4.45,0,0,1,1.66-.29,4.5,4.5,0,0,1,1.67.29,2,2,0,0,1,.58.38,1.77,1.77,0,0,1,.58-.38,4.9,4.9,0,0,1,3.32,0c.49.21.79.52.79.87H78c0-.17-.2-.34-.53-.48a4.46,4.46,0,0,0-3,0c-.33.14-.53.31-.53.48h-.43c0-.17-.2-.34-.53-.48a4.46,4.46,0,0,0-3,0c-.33.14-.53.31-.53.48H69c0-.17-.2-.34-.53-.48a4.46,4.46,0,0,0-3,0c-.33.14-.53.31-.53.48h-.43c0-.17-.2-.34-.53-.48a4.46,4.46,0,0,0-3,0c-.32.14-.53.31-.53.48h-.42c0-.17-.2-.34-.53-.48a4.46,4.46,0,0,0-3,0c-.33.14-.53.31-.53.48h-.43c0-.17-.2-.34-.53-.48a4.46,4.46,0,0,0-3,0c-.32.14-.53.31-.53.48h-.42c0-.17-.2-.34-.53-.48a4.46,4.46,0,0,0-3,0c-.33.14-.53.31-.53.48h-.42c0-.35.3-.66.79-.87a4.9,4.9,0,0,1,3.32,0A1.88,1.88,0,0,1,51.3,125.16Z"/><path class="cls-1" d="M51.3,126.72a2,2,0,0,1,.58-.38,4.92,4.92,0,0,1,3.33,0,2,2,0,0,1,.58.38,1.77,1.77,0,0,1,.58-.38,4.9,4.9,0,0,1,3.32,0,1.88,1.88,0,0,1,.58.38,2,2,0,0,1,.58-.38,4.92,4.92,0,0,1,3.33,0,2,2,0,0,1,.58.38,1.77,1.77,0,0,1,.58-.38,4.9,4.9,0,0,1,3.32,0,1.88,1.88,0,0,1,.58.38,2,2,0,0,1,.58-.38,4.45,4.45,0,0,1,1.66-.29,4.5,4.5,0,0,1,1.67.29,2,2,0,0,1,.58.38,1.77,1.77,0,0,1,.58-.38,4.9,4.9,0,0,1,3.32,0c.49.21.79.51.79.87H78c0-.17-.2-.34-.53-.48a4.46,4.46,0,0,0-3,0c-.33.14-.53.31-.53.48h-.43c0-.17-.2-.34-.53-.48a4.46,4.46,0,0,0-3,0c-.33.14-.53.31-.53.48H69c0-.17-.2-.34-.53-.48a4.46,4.46,0,0,0-3,0c-.33.14-.53.31-.53.48h-.43c0-.17-.2-.34-.53-.48a4.46,4.46,0,0,0-3,0c-.32.14-.53.31-.53.48h-.42c0-.17-.2-.34-.53-.48a4.46,4.46,0,0,0-3,0c-.33.14-.53.31-.53.48h-.43c0-.17-.2-.34-.53-.48a4.46,4.46,0,0,0-3,0c-.32.14-.53.31-.53.48h-.42c0-.17-.2-.34-.53-.48a4.46,4.46,0,0,0-3,0c-.33.14-.53.31-.53.48h-.42c0-.36.3-.66.79-.87a4.9,4.9,0,0,1,3.32,0A1.88,1.88,0,0,1,51.3,126.72Z"/><path class="cls-1" d="M51.3,128.22a1.67,1.67,0,0,1,.58-.38,4.77,4.77,0,0,1,3.33,0,1.67,1.67,0,0,1,.58.38,1.5,1.5,0,0,1,.58-.38,4.74,4.74,0,0,1,3.32,0,1.58,1.58,0,0,1,.58.38,1.67,1.67,0,0,1,.58-.38,4.77,4.77,0,0,1,3.33,0,1.67,1.67,0,0,1,.58.38,1.5,1.5,0,0,1,.58-.38,4.74,4.74,0,0,1,3.32,0,1.58,1.58,0,0,1,.58.38,1.67,1.67,0,0,1,.58-.38,4.44,4.44,0,0,1,1.66-.3,4.49,4.49,0,0,1,1.67.3,1.67,1.67,0,0,1,.58.38,1.5,1.5,0,0,1,.58-.38,4.74,4.74,0,0,1,3.32,0c.49.21.79.51.79.86H78c0-.17-.2-.34-.53-.47a4.3,4.3,0,0,0-3,0c-.33.13-.53.3-.53.47h-.43c0-.17-.2-.34-.53-.47a4.3,4.3,0,0,0-3,0c-.33.13-.53.3-.53.47H69c0-.17-.2-.34-.53-.47a4.3,4.3,0,0,0-3,0c-.33.13-.53.3-.53.47h-.43c0-.17-.2-.34-.53-.47a4.3,4.3,0,0,0-3,0c-.32.13-.53.3-.53.47h-.42c0-.17-.2-.34-.53-.47a4.3,4.3,0,0,0-3,0c-.33.13-.53.3-.53.47h-.43c0-.17-.2-.34-.53-.47a4.3,4.3,0,0,0-3,0c-.32.13-.53.3-.53.47h-.42c0-.17-.2-.34-.53-.47a4.3,4.3,0,0,0-3,0c-.33.13-.53.3-.53.47h-.42c0-.35.3-.65.79-.86a4.74,4.74,0,0,1,3.32,0A1.58,1.58,0,0,1,51.3,128.22Z"/><path class="cls-1" d="M51.3,123.88a1.67,1.67,0,0,1,.58-.38,4.77,4.77,0,0,1,3.33,0,1.67,1.67,0,0,1,.58.38,1.5,1.5,0,0,1,.58-.38,4.74,4.74,0,0,1,3.32,0,1.58,1.58,0,0,1,.58.38,1.67,1.67,0,0,1,.58-.38,4.77,4.77,0,0,1,3.33,0,1.67,1.67,0,0,1,.58.38,1.5,1.5,0,0,1,.58-.38,4.4,4.4,0,0,1,1.66-.3,4.25,4.25,0,0,1,1.66.3,1.58,1.58,0,0,1,.58.38,1.67,1.67,0,0,1,.58-.38,4.25,4.25,0,0,1,1.66-.3,4.3,4.3,0,0,1,1.67.3,1.67,1.67,0,0,1,.58.38,1.5,1.5,0,0,1,.58-.38,4.74,4.74,0,0,1,3.32,0c.49.2.79.51.79.86H78c0-.17-.2-.34-.53-.48a4.46,4.46,0,0,0-3,0c-.33.14-.53.31-.53.48h-.43c0-.17-.2-.34-.53-.48a4.46,4.46,0,0,0-3,0c-.33.14-.53.31-.53.48H69c0-.17-.2-.34-.53-.48a4.46,4.46,0,0,0-3,0c-.33.14-.53.31-.53.48h-.43c0-.17-.2-.34-.53-.48a4.46,4.46,0,0,0-3,0c-.32.14-.53.31-.53.48h-.42c0-.17-.2-.34-.53-.48a4.46,4.46,0,0,0-3,0c-.33.14-.53.31-.53.48h-.43c0-.17-.2-.34-.53-.48a4.46,4.46,0,0,0-3,0c-.32.14-.53.31-.53.48h-.42c0-.17-.2-.34-.53-.48a4.46,4.46,0,0,0-3,0c-.33.14-.53.31-.53.48h-.42c0-.35.3-.66.79-.86a4.74,4.74,0,0,1,3.32,0A1.58,1.58,0,0,1,51.3,123.88Z"/><path class="cls-5" d="M35.72,63.26C25,71.21,19.46,81.53,17.79,92.24a49.6,49.6,0,0,0,1.26,20.5A55.16,55.16,0,0,0,28,131.12c6.81,9.17,16.36,15.84,27.09,17.51a32.55,32.55,0,0,0,4.73.31c3.74.05,6.73.1,10.31,4.19l-.63.55c-3.33-3.81-6.16-3.85-9.69-3.9a34.52,34.52,0,0,1-4.85-.32c-11-1.71-20.69-8.51-27.63-17.84a56,56,0,0,1-9-18.66A50.41,50.41,0,0,1,17,92.11c1.7-10.92,7.37-21.43,18.26-29.52Z"/><path class="cls-6" d="M22.84,75.86c6.6-2.94,10.68-7,12.63-12.94C28.14,64.86,24.36,69.14,22.84,75.86Z"/><path class="cls-5" d="M23.45,75.12a24.64,24.64,0,0,0,7.15-4.9,18.57,18.57,0,0,0,4.21-6.67,16.62,16.62,0,0,0-7.53,4.34,16.23,16.23,0,0,0-3.83,7.23Zm7.75-4.31A26.28,26.28,0,0,1,23,76.24l-.77.34.19-.81a17.54,17.54,0,0,1,4.24-8.46,18,18,0,0,1,8.69-4.79l.75-.2-.24.73A19.56,19.56,0,0,1,31.2,70.81Z"/><path class="cls-6" d="M22,77.62c5.87-.36,10.14-2.28,13.32-6.26C29.14,70.75,25,72.93,22,77.62Z"/><path class="cls-5" d="M22.8,77.13a19.62,19.62,0,0,0,6.65-1.67,14.89,14.89,0,0,0,5-3.74,13.3,13.3,0,0,0-6.79,1.16,13,13,0,0,0-4.85,4.25Zm7-.9A21.67,21.67,0,0,1,22,78l-.83,0,.46-.7a14.31,14.31,0,0,1,5.68-5.27,14.62,14.62,0,0,1,8-1.17l.77.07-.48.61A16,16,0,0,1,29.8,76.23Z"/><path class="cls-6" d="M21.9,77.54c2.76-5.2,3.34-9.84,1.61-14.63C19.78,67.83,19.5,72.47,21.9,77.54Z"/><path class="cls-5" d="M21.93,76.57A19.85,19.85,0,0,0,24,70a14.94,14.94,0,0,0-.6-6.21,13.29,13.29,0,0,0-2.54,6.39,12.86,12.86,0,0,0,1.1,6.36Zm2.88-6.45a21.39,21.39,0,0,1-2.54,7.62l-.39.74-.36-.76A14.33,14.33,0,0,1,20,70.13a14.64,14.64,0,0,1,3.18-7.47l.47-.62.26.73A15.94,15.94,0,0,1,24.81,70.12Z"/><path class="cls-6" d="M19.07,84.5c5.78-2.06,9.24-5.08,10.71-9.66C23.3,76.09,20.12,79.3,19.07,84.5Z"/><path class="cls-5" d="M19.65,83.83a19.62,19.62,0,0,0,6.11-3.53,12.42,12.42,0,0,0,3.38-4.9,13.74,13.74,0,0,0-6.47,3.09,10.58,10.58,0,0,0-3,5.34Zm6.67-2.91a21,21,0,0,1-7.11,4l-.7.25.15-.72a11.73,11.73,0,0,1,3.44-6.54,15.1,15.1,0,0,1,7.6-3.45l.69-.14-.21.68A13.19,13.19,0,0,1,26.32,80.92Z"/><path class="cls-6" d="M19.33,84.64c2.38-6.75,2.25-12.43-.69-17.88C15,73.34,15.54,79,19.33,84.64Z"/><path class="cls-5" d="M19.21,83.68a24.57,24.57,0,0,0,1.35-8.46,18.27,18.27,0,0,0-1.92-7.55,16.46,16.46,0,0,0-2,8.35,16.12,16.12,0,0,0,2.58,7.66ZM21.4,75.2a26,26,0,0,1-1.68,9.57l-.27.79L19,84.87a17.26,17.26,0,0,1-3.18-8.81,17.66,17.66,0,0,1,2.47-9.5l.37-.67.37.67A19.38,19.38,0,0,1,21.4,75.2Z"/><path class="cls-6" d="M17.65,91.3c5.33-3,8.21-6.62,8.85-11.38C20.35,82.28,17.77,86,17.65,91.3Z"/><path class="cls-5" d="M18.11,90.55A19.37,19.37,0,0,0,23.5,86,12.37,12.37,0,0,0,26,80.59a13.61,13.61,0,0,0-5.82,4.17,10.61,10.61,0,0,0-2,5.79Zm6.06-4a21.42,21.42,0,0,1-6.31,5.15l-.65.37,0-.74a11.72,11.72,0,0,1,2.25-7,15.07,15.07,0,0,1,6.88-4.73l.65-.25-.09.7A13.25,13.25,0,0,1,24.17,86.52Z"/><path class="cls-6" d="M17.93,91.39c1.17-7,0-12.63-3.8-17.47C11.74,81,13.21,86.48,17.93,91.39Z"/><path class="cls-5" d="M17.65,90.47a24.59,24.59,0,0,0-.15-8.56,18.33,18.33,0,0,0-3.22-7.1,16.58,16.58,0,0,0-.51,8.57,16,16,0,0,0,3.88,7.09Zm.67-8.73a25.94,25.94,0,0,1,0,9.72l-.14.83-.58-.61A17.35,17.35,0,0,1,13,83.57a17.81,17.81,0,0,1,.78-9.78l.25-.74.47.61A19.16,19.16,0,0,1,18.32,81.74Z"/><path class="cls-6" d="M17,97.59c5.33-3.29,8.21-7.17,8.85-12.33C19.71,87.82,17.14,91.85,17,97.59Z"/><path class="cls-5" d="M17.47,96.81a20.09,20.09,0,0,0,5.39-4.93A14,14,0,0,0,25.34,86a13.86,13.86,0,0,0-5.82,4.52,12.24,12.24,0,0,0-2.05,6.34Zm6.07-4.44A21.71,21.71,0,0,1,17.24,98l-.66.4,0-.76A13.36,13.36,0,0,1,18.84,90a15.08,15.08,0,0,1,6.87-5.11l.67-.28-.09.72A14.85,14.85,0,0,1,23.54,92.37Z"/><path class="cls-6" d="M17.29,97.7c.21-7.15-1.64-12.53-6.1-16.82C9.77,88.25,12,93.45,17.29,97.7Z"/><path class="cls-5" d="M16.89,96.82a24.74,24.74,0,0,0-1.29-8.46,18.34,18.34,0,0,0-4.14-6.61,16.45,16.45,0,0,0,.64,8.56,16,16,0,0,0,4.79,6.51Zm-.51-8.74a25.78,25.78,0,0,1,1.33,9.63l0,.84L17,98a17.36,17.36,0,0,1-5.72-7.41,17.76,17.76,0,0,1-.53-9.8l.14-.76.56.53A19.23,19.23,0,0,1,16.38,88.08Z"/><path class="cls-6" d="M17.54,104.37c4.71-4.13,6.91-8.43,6.69-13.63C18.58,94.29,16.71,98.68,17.54,104.37Z"/><path class="cls-5" d="M17.86,103.52a20.09,20.09,0,0,0,4.5-5.75,14,14,0,0,0,1.47-6.26,13.7,13.7,0,0,0-5,5.42,12.08,12.08,0,0,0-1,6.59Zm5.25-5.38a21.75,21.75,0,0,1-5.29,6.54l-.59.51-.11-.76a13.41,13.41,0,0,1,1-7.86A15,15,0,0,1,24,90.39l.61-.38,0,.72A14.94,14.94,0,0,1,23.11,98.14Z"/><path class="cls-6" d="M17.75,104.06C17,97,14.38,91.88,9.37,88.25,9,95.74,11.87,100.59,17.75,104.06Z"/><path class="cls-5" d="M17.22,103.24A24.34,24.34,0,0,0,14.77,95a18.23,18.23,0,0,0-5-6,16.52,16.52,0,0,0,1.82,8.39,16,16,0,0,0,5.64,5.78Zm-1.7-8.58A26,26,0,0,1,18.16,104l.09.83-.72-.42a17.3,17.3,0,0,1-6.69-6.56A17.77,17.77,0,0,1,9,88.23l0-.77.62.45A19.22,19.22,0,0,1,15.52,94.66Z"/><path class="cls-6" d="M18.23,110.54c4.26-4.59,6-9.1,5.25-14.24C18.23,100.41,16.82,105,18.23,110.54Z"/><path class="cls-5" d="M18.46,109.66a20,20,0,0,0,3.88-6.18,13.91,13.91,0,0,0,.82-6.38A13.87,13.87,0,0,0,18.75,103a12.19,12.19,0,0,0-.29,6.65Zm4.67-5.89a21.84,21.84,0,0,1-4.59,7.06l-.53.56-.19-.75a13.42,13.42,0,0,1,.14-7.91A15.18,15.18,0,0,1,23.22,96l.57-.44.11.71A15,15,0,0,1,23.13,103.77Z"/><path class="cls-6" d="M18.4,110.22c-1.59-7-4.74-11.71-10.14-14.73C8.74,103,12.17,107.45,18.4,110.22Z"/><path class="cls-5" d="M17.79,109.47a24.32,24.32,0,0,0-3.38-7.86,18.15,18.15,0,0,0-5.67-5.35,16.52,16.52,0,0,0,2.78,8.12,16,16,0,0,0,6.27,5.09Zm-2.69-8.34a25.86,25.86,0,0,1,3.71,9l.19.82-.76-.34a17.33,17.33,0,0,1-7.41-5.74,17.79,17.79,0,0,1-3-9.35l0-.77.68.38A19.3,19.3,0,0,1,15.1,101.13Z"/><path class="cls-6" d="M19.87,116.26c3.6-5.13,4.72-9.82,3.28-14.82C18.5,106.22,17.72,110.94,19.87,116.26Z"/><path class="cls-5" d="M20,115.36a19.91,19.91,0,0,0,3-6.65,14,14,0,0,0-.06-6.43,13.76,13.76,0,0,0-3.56,6.45,12.15,12.15,0,0,0,.61,6.63Zm3.83-6.47a21.56,21.56,0,0,1-3.59,7.61l-.45.64-.28-.72a13.39,13.39,0,0,1-.94-7.86,15,15,0,0,1,4.3-7.41l.5-.52.2.7A14.94,14.94,0,0,1,23.81,108.89Z"/><path class="cls-6" d="M20,115.92c-2.52-6.7-6.29-11-12-13.22C9.45,110.05,13.45,114,20,115.92Z"/><path class="cls-5" d="M19.3,115.26a24.41,24.41,0,0,0-4.42-7.33,18.24,18.24,0,0,0-6.34-4.54,16.5,16.5,0,0,0,3.85,7.68,16,16,0,0,0,6.91,4.19Zm-3.8-7.89a26.08,26.08,0,0,1,4.9,8.4l.29.78-.8-.23a17.38,17.38,0,0,1-8.12-4.68,17.94,17.94,0,0,1-4.23-8.86L7.39,102l.72.29A19.1,19.1,0,0,1,15.5,107.37Z"/><path class="cls-6" d="M22.09,121.61c3.08-5.45,3.74-10.24,1.81-15.07C19.74,111.75,19.43,116.52,22.09,121.61Z"/><path class="cls-5" d="M22.11,120.71a20.28,20.28,0,0,0,2.35-6.92,14.08,14.08,0,0,0-.68-6.39,13.68,13.68,0,0,0-2.92,6.77,12.08,12.08,0,0,0,1.25,6.54Zm3.18-6.82a21.53,21.53,0,0,1-2.84,7.93l-.37.67-.36-.68a13.42,13.42,0,0,1-1.7-7.73,15.19,15.19,0,0,1,3.56-7.8l.45-.56.26.67A14.84,14.84,0,0,1,25.29,113.89Z"/><path class="cls-6" d="M22.18,121.25c-3.16-6.41-7.32-10.28-13.27-12C11.11,116.44,15.48,120,22.18,121.25Z"/><path class="cls-5" d="M21.42,120.67a24.67,24.67,0,0,0-5.11-6.87,18.33,18.33,0,0,0-6.75-3.89,16.49,16.49,0,0,0,4.57,7.26,16.13,16.13,0,0,0,7.29,3.5Zm-4.55-7.49a26,26,0,0,1,5.69,7.89l.37.75-.82-.15a17.37,17.37,0,0,1-8.53-3.87,17.76,17.76,0,0,1-5.07-8.41l-.23-.74.74.22A19.27,19.27,0,0,1,16.87,113.18Z"/><path class="cls-6" d="M25.37,128.06c2.57-6.11,2.78-11.3.42-16.32C22.13,117.69,22.25,122.83,25.37,128.06Z"/><path class="cls-5" d="M25.3,127.1A22.75,22.75,0,0,0,27,119.48a16.26,16.26,0,0,0-1.27-6.83,15.53,15.53,0,0,0-2.29,7.52,14.05,14.05,0,0,0,1.85,6.93Zm2.55-7.6a24.4,24.4,0,0,1-2.09,8.72l-.33.77-.42-.71a15.25,15.25,0,0,1-2.39-8.12,16.71,16.71,0,0,1,2.82-8.64l.4-.66.33.7A17.14,17.14,0,0,1,27.85,119.5Z"/><path class="cls-6" d="M25.41,127.69c-3.6-6.19-8-9.76-14.06-11C14,123.64,18.64,126.9,25.41,127.69Z"/><path class="cls-5" d="M24.61,127.16a24.35,24.35,0,0,0-5.57-6.5,18.41,18.41,0,0,0-7-3.43,16.47,16.47,0,0,0,5.06,6.93,16,16,0,0,0,7.51,3ZM19.56,120a25.88,25.88,0,0,1,6.21,7.48l.43.72-.84-.1a17.28,17.28,0,0,1-8.77-3.27,17.73,17.73,0,0,1-5.64-8l-.27-.72.75.16A19.32,19.32,0,0,1,19.56,120Z"/><path class="cls-6" d="M28.5,132.75c2.57-6.11,2.79-11.3.43-16.31C25.26,122.38,25.38,127.52,28.5,132.75Z"/><path class="cls-5" d="M28.44,131.79a22.94,22.94,0,0,0,1.71-7.62,16.07,16.07,0,0,0-1.28-6.82,15.48,15.48,0,0,0-2.28,7.52,14,14,0,0,0,1.85,6.92Zm2.54-7.6a24.24,24.24,0,0,1-2.09,8.73l-.32.76-.43-.71a15.21,15.21,0,0,1-2.39-8.11,16.93,16.93,0,0,1,2.82-8.65l.41-.65.33.7A17,17,0,0,1,31,124.19Z"/><path class="cls-6" d="M28.55,132.39c-4-5.13-8.47-7.82-14.1-8.22C17.76,130.16,22.33,132.53,28.55,132.39Z"/><path class="cls-5" d="M27.68,132a22.18,22.18,0,0,0-5.79-5.11,16.71,16.71,0,0,0-6.67-2.21,15,15,0,0,0,5.39,5.56A14.64,14.64,0,0,0,27.68,132Zm-5.37-5.83a23.74,23.74,0,0,1,6.57,6l.52.65-.84,0A15.87,15.87,0,0,1,20.2,131a16.3,16.3,0,0,1-6.12-6.58l-.37-.67.77,0A17.61,17.61,0,0,1,22.31,126.15Z"/><path class="cls-6" d="M33.29,137.81c2.57-4.06.29-12.12-2.75-16.87C27.71,127.17,27.68,133.25,33.29,137.81Z"/><path class="cls-5" d="M33.17,137.16a11.11,11.11,0,0,0,.58-6.66,26.3,26.3,0,0,0-3.15-8.66,15.87,15.87,0,0,0-1.37,8.59,11.13,11.13,0,0,0,3.94,6.73Zm1.41-6.79c.47,2.92.3,5.71-.94,7.66l-.25.4-.37-.3a12.11,12.11,0,0,1-4.62-7.57,17.28,17.28,0,0,1,1.75-9.8l.32-.7.42.65A27,27,0,0,1,34.58,130.37Z"/><path class="cls-6" d="M32.28,137.19c-4.49-4.75-9.16-7-14.8-6.89C21.32,136,26.1,137.9,32.28,137.19Z"/><path class="cls-5" d="M31.37,136.85a22.26,22.26,0,0,0-6.23-4.55,16.66,16.66,0,0,0-6.86-1.58,14.91,14.91,0,0,0,5.89,5,14.42,14.42,0,0,0,7.2,1.1Zm-5.88-5.31a23.88,23.88,0,0,1,7.09,5.36l.58.61-.83.1a16,16,0,0,1-8.5-1.09,16.26,16.26,0,0,1-6.7-6l-.43-.64.77,0A17.63,17.63,0,0,1,25.49,131.54Z"/><path class="cls-6" d="M38.37,141.64c.75-6.49-.51-11.52-4.23-15.77C32.27,132.45,32.66,138.26,38.37,141.64Z"/><path class="cls-5" d="M38,140.92a22.53,22.53,0,0,0-.49-7.9,16.69,16.69,0,0,0-3.19-6.26,17.88,17.88,0,0,0-.52,8.11,9.42,9.42,0,0,0,4.2,6Zm.32-8.11a23.86,23.86,0,0,1,.45,8.88l-.08.64-.56-.33A10.36,10.36,0,0,1,33,135a19.49,19.49,0,0,1,.74-9.28L34,125l.51.59A17.69,17.69,0,0,1,38.34,132.81Z"/><path class="cls-6" d="M38.28,141.68c-5.14-4-10.1-5.56-15.66-4.61C27.26,142.1,32.27,143.31,38.28,141.68Z"/><path class="cls-5" d="M37.33,141.49a22.32,22.32,0,0,0-6.84-3.58,16.84,16.84,0,0,0-7-.54,15,15,0,0,0,6.57,4.1,14.57,14.57,0,0,0,7.28,0Zm-6.6-4.38a23.92,23.92,0,0,1,7.81,4.24l.66.52-.81.22a15.87,15.87,0,0,1-8.57.19,16.28,16.28,0,0,1-7.51-4.92l-.52-.57.76-.13A17.59,17.59,0,0,1,30.73,137.11Z"/><path class="cls-6" d="M43.89,145.42c.91-5.44-2.39-11.67-6.49-15.56C36.15,136.59,37.54,142.49,43.89,145.42Z"/><path class="cls-5" d="M43.56,144.79a14.5,14.5,0,0,0-1.21-7.07,22.83,22.83,0,0,0-4.67-7,16,16,0,0,0,.68,8.64,10.55,10.55,0,0,0,5.2,5.43Zm-.43-7.39a14.88,14.88,0,0,1,1.18,8.08l-.09.55-.5-.23a11.57,11.57,0,0,1-6.13-6.11,17.4,17.4,0,0,1-.6-9.91l.14-.76.56.54A23.57,23.57,0,0,1,43.13,137.4Z"/><path class="cls-6" d="M43,145.23c-5.49-3.54-10.56-4.62-16-3.15C32.05,146.66,37.15,147.4,43,145.23Z"/><path class="cls-5" d="M42,145.12a22.27,22.27,0,0,0-7.14-2.93,16.68,16.68,0,0,0-7,.1,14.84,14.84,0,0,0,6.92,3.48,14.52,14.52,0,0,0,7.25-.65Zm-7-3.76a23.92,23.92,0,0,1,8.17,3.51l.7.46-.78.29a15.87,15.87,0,0,1-8.51,1,16.35,16.35,0,0,1-7.94-4.21l-.57-.52.74-.2A17.65,17.65,0,0,1,35,141.36Z"/><path class="cls-6" d="M50.11,147.92A21.45,21.45,0,0,0,41,133.07C40.79,139.91,42.45,145.41,50.11,147.92Z"/><path class="cls-5" d="M49.59,147.3a21,21,0,0,0-8.21-13.42A17.06,17.06,0,0,0,43,141.93a11.54,11.54,0,0,0,6.62,5.37Zm-2.11-8a21.72,21.72,0,0,1,3,8.55l.09.66-.63-.21c-3.94-1.29-6.35-3.36-7.75-6s-1.77-5.77-1.68-9.26l0-.77.64.43A21.88,21.88,0,0,1,47.48,139.32Z"/><path class="cls-6" d="M48.9,147.36c-6-2.62-11.16-2.89-16.31-.58C38.33,150.5,43.49,150.43,48.9,147.36Z"/><path class="cls-5" d="M47.94,147.41a22.31,22.31,0,0,0-7.52-1.77,16.79,16.79,0,0,0-6.92,1.21,15,15,0,0,0,7.38,2.35,14.66,14.66,0,0,0,7.06-1.79Zm-7.49-2.61A23.91,23.91,0,0,1,49.07,147l.77.34-.73.41a15.78,15.78,0,0,1-8.25,2.3,16.23,16.23,0,0,1-8.5-2.9l-.65-.42.71-.31A17.74,17.74,0,0,1,40.45,144.8Z"/><path class="cls-6" d="M55.26,149.06c-1.59-6.33-4.56-10.59-9.54-13.25C46.3,142.63,49.18,148,55.26,149.06Z"/><path class="cls-5" d="M54.68,148.51a22.37,22.37,0,0,0-3.26-7.21,16.63,16.63,0,0,0-5.2-4.73,17.18,17.18,0,0,0,2.78,8.1,9.69,9.69,0,0,0,5.68,3.84Zm-2.58-7.7A23.78,23.78,0,0,1,55.67,149l.16.63-.65-.12a10.56,10.56,0,0,1-6.86-4.31,18.79,18.79,0,0,1-3-9.31l-.06-.77.68.36A17.59,17.59,0,0,1,52.1,140.81Z"/><path class="cls-6" d="M55.19,149.13c-6.23-1.94-11.41-1.63-16.27,1.24C45,153.43,50.15,152.78,55.19,149.13Z"/><path class="cls-5" d="M54.24,149.29a22,22,0,0,0-7.67-.92,16.63,16.63,0,0,0-6.74,2,14.89,14.89,0,0,0,7.59,1.51,14.58,14.58,0,0,0,6.82-2.56Zm-7.73-1.76a23.87,23.87,0,0,1,8.81,1.2l.8.25-.68.49a15.8,15.8,0,0,1-7.94,3.21,16.1,16.1,0,0,1-8.77-1.94L38,150.4l.66-.39A17.64,17.64,0,0,1,46.51,147.53Z"/><path class="cls-5" d="M89.63,63.26c10.69,7.95,16.26,18.27,17.92,29a49.43,49.43,0,0,1-1.26,20.5,55.16,55.16,0,0,1-8.91,18.38C90.57,140.29,81,147,70.29,148.63a32.46,32.46,0,0,1-4.73.31c-3.74.05-6.73.1-10.3,4.19l.63.55c3.33-3.81,6.15-3.85,9.68-3.9a34.43,34.43,0,0,0,4.85-.32c11-1.71,20.7-8.51,27.64-17.84a56.14,56.14,0,0,0,9-18.66,50.25,50.25,0,0,0,1.28-20.85c-1.7-10.92-7.37-21.43-18.25-29.52Z"/><path class="cls-6" d="M102.51,75.86c-6.61-2.94-10.69-7-12.63-12.94C97.2,64.86,101,69.14,102.51,75.86Z"/><path class="cls-5" d="M101.89,75.12a24.92,24.92,0,0,1-7.15-4.9,18.41,18.41,0,0,1-4.2-6.67,16.58,16.58,0,0,1,7.52,4.34,16,16,0,0,1,3.83,7.23Zm-7.74-4.31a26.17,26.17,0,0,0,8.19,5.43l.76.34-.18-.81a17.47,17.47,0,0,0-4.25-8.46A17.92,17.92,0,0,0,90,62.52l-.74-.2.24.73A19.33,19.33,0,0,0,94.15,70.81Z"/><path class="cls-6" d="M103.39,77.62c-5.88-.36-10.14-2.28-13.33-6.26C96.2,70.75,100.31,72.93,103.39,77.62Z"/><path class="cls-5" d="M102.55,77.13a19.68,19.68,0,0,1-6.66-1.67,15,15,0,0,1-5-3.74,13.29,13.29,0,0,1,6.78,1.16,13.11,13.11,0,0,1,4.86,4.25Zm-7-.9A21.72,21.72,0,0,0,103.36,78l.84,0-.46-.7a14.39,14.39,0,0,0-5.69-5.27A14.61,14.61,0,0,0,90,71l-.77.07.49.61A16,16,0,0,0,95.54,76.23Z"/><path class="cls-6" d="M103.44,77.54c-2.75-5.2-3.34-9.84-1.6-14.63C105.56,67.83,105.84,72.47,103.44,77.54Z"/><path class="cls-5" d="M103.42,76.57a19.88,19.88,0,0,1-2-6.54,15.11,15.11,0,0,1,.6-6.21,13.31,13.31,0,0,1,2.55,6.39,13.09,13.09,0,0,1-1.1,6.36Zm-2.88-6.45a21.56,21.56,0,0,0,2.53,7.62l.4.74.35-.76a14.23,14.23,0,0,0,1.53-7.59,14.64,14.64,0,0,0-3.18-7.47L101.7,62l-.26.73A15.94,15.94,0,0,0,100.54,70.12Z"/><path class="cls-6" d="M106.28,84.5c-5.78-2.06-9.25-5.08-10.71-9.66C102,76.09,105.23,79.3,106.28,84.5Z"/><path class="cls-5" d="M105.7,83.83a19.56,19.56,0,0,1-6.12-3.53,12.29,12.29,0,0,1-3.37-4.9,13.66,13.66,0,0,1,6.46,3.09,10.6,10.6,0,0,1,3,5.34ZM99,80.92a20.85,20.85,0,0,0,7.11,4l.69.25-.14-.72a11.69,11.69,0,0,0-3.45-6.54,15.1,15.1,0,0,0-7.59-3.45l-.7-.14.22.68A13.11,13.11,0,0,0,99,80.92Z"/><path class="cls-6" d="M106,84.64c-2.39-6.75-2.25-12.43.68-17.88C110.3,73.34,109.8,79,106,84.64Z"/><path class="cls-5" d="M106.13,83.68a24.57,24.57,0,0,1-1.35-8.46,18.28,18.28,0,0,1,1.93-7.55,16.55,16.55,0,0,1,2,8.35,16,16,0,0,1-2.58,7.66ZM104,75.2a25.78,25.78,0,0,0,1.67,9.57l.28.79.46-.69a17.27,17.27,0,0,0,3.19-8.81,17.77,17.77,0,0,0-2.48-9.5l-.37-.67-.36.67A19.12,19.12,0,0,0,104,75.2Z"/><path class="cls-6" d="M107.69,91.3c-5.33-3-8.21-6.62-8.85-11.38C105,82.28,107.57,86,107.69,91.3Z"/><path class="cls-5" d="M107.24,90.55a19.43,19.43,0,0,1-5.4-4.55,12.37,12.37,0,0,1-2.47-5.41,13.55,13.55,0,0,1,5.82,4.17,10.54,10.54,0,0,1,2,5.79Zm-6.06-4a21.16,21.16,0,0,0,6.31,5.15l.64.37,0-.74a11.65,11.65,0,0,0-2.25-7A15,15,0,0,0,99,79.53l-.66-.25.09.7A13.36,13.36,0,0,0,101.18,86.52Z"/><path class="cls-6" d="M107.41,91.39c-1.16-7,0-12.63,3.81-17.47C113.61,81,112.13,86.48,107.41,91.39Z"/><path class="cls-5" d="M107.7,90.47a24.35,24.35,0,0,1,.15-8.56,18.31,18.31,0,0,1,3.21-7.1,16.37,16.37,0,0,1,.51,8.57,15.87,15.87,0,0,1-3.87,7.09ZM107,81.74a25.94,25.94,0,0,0,0,9.72l.14.83.58-.61a17.33,17.33,0,0,0,4.67-8.11,17.71,17.71,0,0,0-.77-9.78l-.25-.74-.48.61A19.26,19.26,0,0,0,107,81.74Z"/><path class="cls-6" d="M108.33,97.59c-5.33-3.29-8.21-7.17-8.86-12.33C105.63,87.82,108.21,91.85,108.33,97.59Z"/><path class="cls-5" d="M107.88,96.81a20,20,0,0,1-5.4-4.93A14,14,0,0,1,100,86a13.79,13.79,0,0,1,5.82,4.52,12.16,12.16,0,0,1,2.06,6.34Zm-6.08-4.44A21.76,21.76,0,0,0,108.11,98l.65.4v-.76a13.44,13.44,0,0,0-2.24-7.6,15.14,15.14,0,0,0-6.87-5.11L99,84.6l.09.72A14.84,14.84,0,0,0,101.8,92.37Z"/><path class="cls-6" d="M108.05,97.7c-.21-7.15,1.65-12.53,6.11-16.82C115.58,88.25,113.39,93.45,108.05,97.7Z"/><path class="cls-5" d="M108.46,96.82a24.26,24.26,0,0,1,1.29-8.46,18.32,18.32,0,0,1,4.13-6.61,16.46,16.46,0,0,1-.63,8.56,16,16,0,0,1-4.79,6.51Zm.5-8.74a26,26,0,0,0-1.32,9.63l0,.84.66-.53A17.34,17.34,0,0,0,114,90.61a17.75,17.75,0,0,0,.54-9.8l-.15-.76-.55.53A19.26,19.26,0,0,0,109,88.08Z"/><path class="cls-6" d="M107.81,104.37c-4.72-4.13-6.92-8.43-6.7-13.63C106.76,94.29,108.64,98.68,107.81,104.37Z"/><path class="cls-5" d="M107.49,103.52a20.09,20.09,0,0,1-4.5-5.75,13.89,13.89,0,0,1-1.47-6.26,13.85,13.85,0,0,1,5,5.42,12.17,12.17,0,0,1,1,6.59Zm-5.26-5.38a21.64,21.64,0,0,0,5.3,6.54l.58.51.11-.76a13.33,13.33,0,0,0-1-7.86,15.16,15.16,0,0,0-5.93-6.18l-.62-.38,0,.72A14.94,14.94,0,0,0,102.23,98.14Z"/><path class="cls-6" d="M107.6,104.06C108.38,97,111,91.88,116,88.25,116.36,95.74,113.47,100.59,107.6,104.06Z"/><path class="cls-5" d="M108.12,103.24a24.57,24.57,0,0,1,2.45-8.2,18.35,18.35,0,0,1,5-6,16.42,16.42,0,0,1-1.82,8.39,16,16,0,0,1-5.64,5.78Zm1.71-8.58a26,26,0,0,0-2.65,9.35l-.09.83.72-.42a17.3,17.3,0,0,0,6.69-6.56,17.77,17.77,0,0,0,1.89-9.63l0-.77-.63.45A19.29,19.29,0,0,0,109.83,94.66Z"/><path class="cls-6" d="M107.11,110.54c-4.26-4.59-6-9.1-5.25-14.24C107.12,100.41,108.53,105,107.11,110.54Z"/><path class="cls-5" d="M106.89,109.66a20,20,0,0,1-3.89-6.18,14,14,0,0,1-.81-6.38,13.84,13.84,0,0,1,4.4,5.91,12.09,12.09,0,0,1,.3,6.65Zm-4.67-5.89a21.51,21.51,0,0,0,4.59,7.06l.52.56.19-.75a13.27,13.27,0,0,0-.14-7.91A15.18,15.18,0,0,0,102.12,96l-.57-.44-.1.71A14.86,14.86,0,0,0,102.22,103.77Z"/><path class="cls-6" d="M106.94,110.22c1.6-7,4.75-11.71,10.14-14.73C116.6,103,113.17,107.45,106.94,110.22Z"/><path class="cls-5" d="M107.55,109.47a24.54,24.54,0,0,1,3.38-7.86,18.15,18.15,0,0,1,5.67-5.35,16.41,16.41,0,0,1-2.77,8.12,16.08,16.08,0,0,1-6.28,5.09Zm2.69-8.34a26.05,26.05,0,0,0-3.71,9l-.19.82.77-.34a17.23,17.23,0,0,0,7.4-5.74,17.71,17.71,0,0,0,3-9.35l0-.77-.67.38A19.25,19.25,0,0,0,110.24,101.13Z"/><path class="cls-6" d="M105.47,116.26c-3.6-5.13-4.72-9.82-3.27-14.82C106.85,106.22,107.62,110.94,105.47,116.26Z"/><path class="cls-5" d="M105.36,115.36a20.11,20.11,0,0,1-3-6.65,14,14,0,0,1,.06-6.43,13.76,13.76,0,0,1,3.56,6.45,12.06,12.06,0,0,1-.61,6.63Zm-3.83-6.47a21.77,21.77,0,0,0,3.6,7.61l.44.64.29-.72a13.39,13.39,0,0,0,.94-7.86,15.19,15.19,0,0,0-4.3-7.41l-.5-.52-.2.7A14.83,14.83,0,0,0,101.53,108.89Z"/><path class="cls-6" d="M105.34,115.92c2.53-6.7,6.29-11,12-13.22C115.9,110.05,111.89,114,105.34,115.92Z"/><path class="cls-5" d="M106.05,115.26a24.6,24.6,0,0,1,4.41-7.33,18.37,18.37,0,0,1,6.35-4.54,16.5,16.5,0,0,1-3.85,7.68,16.1,16.1,0,0,1-6.91,4.19Zm3.79-7.89a25.88,25.88,0,0,0-4.89,8.4l-.3.78.81-.23a17.3,17.3,0,0,0,8.11-4.68,17.77,17.77,0,0,0,4.23-8.86L118,102l-.71.29A19.22,19.22,0,0,0,109.84,107.37Z"/><path class="cls-6" d="M103.25,121.61c-3.08-5.45-3.73-10.24-1.81-15.07C105.6,111.75,105.92,116.52,103.25,121.61Z"/><path class="cls-5" d="M103.24,120.71a19.86,19.86,0,0,1-2.35-6.92,13.94,13.94,0,0,1,.68-6.39,13.86,13.86,0,0,1,2.92,6.77,12.17,12.17,0,0,1-1.25,6.54Zm-3.19-6.82a21.72,21.72,0,0,0,2.84,7.93l.38.67.36-.68a13.33,13.33,0,0,0,1.69-7.73,15.09,15.09,0,0,0-3.55-7.8l-.45-.56-.27.67A15,15,0,0,0,100.05,113.89Z"/><path class="cls-6" d="M103.16,121.25c3.17-6.41,7.33-10.28,13.28-12C114.24,116.44,109.86,120,103.16,121.25Z"/><path class="cls-5" d="M103.93,120.67A24.48,24.48,0,0,1,109,113.8a18.33,18.33,0,0,1,6.75-3.89,16.51,16.51,0,0,1-4.58,7.26,16.09,16.09,0,0,1-7.28,3.5Zm4.54-7.49a26,26,0,0,0-5.69,7.89l-.37.75.83-.15a17.38,17.38,0,0,0,8.52-3.87,17.77,17.77,0,0,0,5.08-8.41l.22-.74-.74.22A19.27,19.27,0,0,0,108.47,113.18Z"/><path class="cls-6" d="M100,128.06c-2.57-6.11-2.79-11.3-.43-16.32C103.22,117.69,103.1,122.83,100,128.06Z"/><path class="cls-5" d="M100,127.1a23,23,0,0,1-1.71-7.62,16.12,16.12,0,0,1,1.28-6.83,15.51,15.51,0,0,1,2.28,7.52A14.05,14.05,0,0,1,100,127.1Zm-2.54-7.6a24.19,24.19,0,0,0,2.09,8.72l.32.77.43-.71a15.25,15.25,0,0,0,2.39-8.12,16.89,16.89,0,0,0-2.82-8.64l-.41-.66-.33.7A17.13,17.13,0,0,0,97.5,119.5Z"/><path class="cls-6" d="M99.93,127.69c3.6-6.19,8-9.76,14.07-11C111.31,123.64,106.71,126.9,99.93,127.69Z"/><path class="cls-5" d="M100.74,127.16a24.51,24.51,0,0,1,5.56-6.5,18.38,18.38,0,0,1,7-3.43,16.4,16.4,0,0,1-5.07,6.93,16,16,0,0,1-7.5,3Zm5.05-7.16a25.74,25.74,0,0,0-6.22,7.48l-.42.72.83-.1a17.24,17.24,0,0,0,8.77-3.27,17.73,17.73,0,0,0,5.64-8l.28-.72-.76.16A19.28,19.28,0,0,0,105.79,120Z"/><path class="cls-6" d="M96.84,132.75c-2.57-6.11-2.78-11.3-.42-16.31C100.08,122.38,100,127.52,96.84,132.75Z"/><path class="cls-5" d="M96.9,131.79a22.91,22.91,0,0,1-1.7-7.62,16.22,16.22,0,0,1,1.27-6.82,15.48,15.48,0,0,1,2.28,7.52,13.81,13.81,0,0,1-1.85,6.92Zm-2.54-7.6a24.45,24.45,0,0,0,2.09,8.73l.32.76.43-.71a15.21,15.21,0,0,0,2.39-8.11,16.83,16.83,0,0,0-2.82-8.65l-.4-.65-.33.7A17.1,17.1,0,0,0,94.36,124.19Z"/><path class="cls-6" d="M96.79,132.39c4-5.13,8.47-7.82,14.1-8.22C107.59,130.16,103,132.53,96.79,132.39Z"/><path class="cls-5" d="M97.67,132a22,22,0,0,1,5.78-5.11,16.7,16.7,0,0,1,6.68-2.21,15,15,0,0,1-5.4,5.56A14.6,14.6,0,0,1,97.67,132Zm5.36-5.83a23.88,23.88,0,0,0-6.57,6l-.51.65.84,0a15.85,15.85,0,0,0,8.35-1.86,16.23,16.23,0,0,0,6.12-6.58l.37-.67-.77,0A17.65,17.65,0,0,0,103,126.15Z"/><path class="cls-6" d="M92.06,137.81c-2.57-4.06-.3-12.12,2.75-16.87C97.64,127.17,97.66,133.25,92.06,137.81Z"/><path class="cls-5" d="M92.17,137.16a11,11,0,0,1-.57-6.66,26.08,26.08,0,0,1,3.15-8.66,15.86,15.86,0,0,1,1.36,8.59,11.13,11.13,0,0,1-3.94,6.73Zm-1.4-6.79c-.48,2.92-.3,5.71.93,7.66l.26.4.36-.3a12.07,12.07,0,0,0,4.62-7.57,17.19,17.19,0,0,0-1.75-9.8l-.32-.7-.41.65A26.81,26.81,0,0,0,90.77,130.37Z"/><path class="cls-6" d="M93.07,137.19c4.48-4.75,9.15-7,14.8-6.89C104,136,99.25,137.9,93.07,137.19Z"/><path class="cls-5" d="M94,136.85a22.12,22.12,0,0,1,6.23-4.55,16.58,16.58,0,0,1,6.85-1.58,14.91,14.91,0,0,1-5.89,5,14.38,14.38,0,0,1-7.19,1.1Zm5.87-5.31a23.88,23.88,0,0,0-7.09,5.36l-.57.61.83.1a16,16,0,0,0,8.5-1.09,16.24,16.24,0,0,0,6.69-6l.44-.64-.78,0A17.69,17.69,0,0,0,99.85,131.54Z"/><path class="cls-6" d="M87,141.64c-.76-6.49.51-11.52,4.22-15.77C93.07,132.45,92.69,138.26,87,141.64Z"/><path class="cls-5" d="M87.32,140.92a22.28,22.28,0,0,1,.5-7.9A16.41,16.41,0,0,1,91,126.76a17.87,17.87,0,0,1,.51,8.11,9.35,9.35,0,0,1-4.2,6ZM87,132.81a23.65,23.65,0,0,0-.45,8.88l.07.64.56-.33a10.33,10.33,0,0,0,5.15-7,19.48,19.48,0,0,0-.73-9.28L91.4,125l-.51.59A17.58,17.58,0,0,0,87,132.81Z"/><path class="cls-6" d="M87.07,141.68c5.14-4,10.09-5.56,15.65-4.61C98.08,142.1,93.07,143.31,87.07,141.68Z"/><path class="cls-5" d="M88,141.49a22.26,22.26,0,0,1,6.85-3.58,16.79,16.79,0,0,1,7-.54,14.87,14.87,0,0,1-6.57,4.1,14.56,14.56,0,0,1-7.28,0Zm6.61-4.38a23.72,23.72,0,0,0-7.81,4.24l-.66.52.81.22a15.83,15.83,0,0,0,8.56.19,16.24,16.24,0,0,0,7.51-4.92l.53-.57-.76-.13A17.59,17.59,0,0,0,94.62,137.11Z"/><path class="cls-6" d="M81.45,145.42c-.9-5.44,2.4-11.67,6.49-15.56C89.2,136.59,87.81,142.49,81.45,145.42Z"/><path class="cls-5" d="M81.79,144.79a14.38,14.38,0,0,1,1.2-7.07,23,23,0,0,1,4.67-7,16,16,0,0,1-.68,8.64,10.57,10.57,0,0,1-5.19,5.43Zm.43-7.39A14.79,14.79,0,0,0,81,145.48l.09.55.49-.23a11.59,11.59,0,0,0,6.14-6.11,17.49,17.49,0,0,0,.59-9.91l-.14-.76-.56.54A23.54,23.54,0,0,0,82.22,137.4Z"/><path class="cls-6" d="M82.36,145.23c5.49-3.54,10.57-4.62,16-3.15C93.3,146.66,88.2,147.4,82.36,145.23Z"/><path class="cls-5" d="M83.33,145.12a22.09,22.09,0,0,1,7.14-2.93,16.68,16.68,0,0,1,7,.1,14.93,14.93,0,0,1-6.92,3.48,14.51,14.51,0,0,1-7.25-.65Zm7-3.76a24,24,0,0,0-8.16,3.51l-.71.46.79.29a15.86,15.86,0,0,0,8.51,1,16.32,16.32,0,0,0,7.93-4.21l.58-.52-.75-.2A17.65,17.65,0,0,0,90.3,141.36Z"/><path class="cls-6" d="M75.24,147.92a21.44,21.44,0,0,1,9.13-14.85C84.55,139.91,82.89,145.41,75.24,147.92Z"/><path class="cls-5" d="M75.75,147.3A21.1,21.1,0,0,1,84,133.88a16.82,16.82,0,0,1-1.59,8.05,11.5,11.5,0,0,1-6.62,5.37Zm2.11-8a21.88,21.88,0,0,0-3,8.55l-.09.66.64-.21c3.94-1.29,6.34-3.36,7.74-6s1.77-5.77,1.68-9.26l0-.77-.64.43A22,22,0,0,0,77.86,139.32Z"/><path class="cls-6" d="M76.44,147.36c6-2.62,11.16-2.89,16.31-.58C87,150.5,81.86,150.43,76.44,147.36Z"/><path class="cls-5" d="M77.41,147.41a22.26,22.26,0,0,1,7.51-1.77,16.84,16.84,0,0,1,6.93,1.21,15,15,0,0,1-7.39,2.35,14.6,14.6,0,0,1-7-1.79Zm7.48-2.61A23.91,23.91,0,0,0,76.27,147l-.76.34.72.41a15.8,15.8,0,0,0,8.25,2.3,16.2,16.2,0,0,0,8.5-2.9l.65-.42-.7-.31A17.78,17.78,0,0,0,84.89,144.8Z"/><path class="cls-6" d="M70.08,149.06c1.59-6.33,4.56-10.59,9.54-13.25C79,142.63,76.16,148,70.08,149.06Z"/><path class="cls-5" d="M70.66,148.51a22.37,22.37,0,0,1,3.26-7.21,16.63,16.63,0,0,1,5.2-4.73,17.07,17.07,0,0,1-2.78,8.1,9.69,9.69,0,0,1-5.68,3.84Zm2.58-7.7A23.58,23.58,0,0,0,69.68,149l-.16.63.64-.12A10.51,10.51,0,0,0,77,145.16a18.59,18.59,0,0,0,3-9.31l.07-.77-.69.36A17.68,17.68,0,0,0,73.24,140.81Z"/><path class="cls-6" d="M70.15,149.13c6.23-1.94,11.41-1.63,16.28,1.24C80.31,153.43,75.19,152.78,70.15,149.13Z"/><path class="cls-5" d="M71.11,149.29a21.9,21.9,0,0,1,7.66-.92,16.67,16.67,0,0,1,6.75,2,14.93,14.93,0,0,1-7.6,1.51,14.55,14.55,0,0,1-6.81-2.56Zm7.72-1.76a23.82,23.82,0,0,0-8.8,1.2l-.8.25.68.49a15.8,15.8,0,0,0,7.94,3.21,16.14,16.14,0,0,0,8.77-1.94l.69-.34-.67-.39A17.6,17.6,0,0,0,78.83,147.53Z"/><path d="M213.69,144.34a99.57,99.57,0,0,1-24.49-3q-11.7-3-18.91-7.48l9.57-20.18a69.46,69.46,0,0,0,16,6.8,63.35,63.35,0,0,0,18,2.67,39.62,39.62,0,0,0,9.78-1,11.1,11.1,0,0,0,5.29-2.74,6,6,0,0,0,1.7-4.26c0-2.1-1.09-3.77-3.24-5a33.9,33.9,0,0,0-8.46-3.15q-5.22-1.31-11.33-2.47a121.83,121.83,0,0,1-12.43-3.09,49,49,0,0,1-11.47-5.08,25.15,25.15,0,0,1-8.31-8.23q-3.17-5.08-3.16-12.77a26,26,0,0,1,5-15.51q5-7,15.15-11.25t25.3-4.25a94,94,0,0,1,19.93,2.12,61.6,61.6,0,0,1,17.29,6.38l-8.83,20a65.55,65.55,0,0,0-14.56-5.62,58.15,58.15,0,0,0-14-1.79,31.06,31.06,0,0,0-9.71,1.24A11.59,11.59,0,0,0,202.51,70a6.31,6.31,0,0,0-1.62,4.12,5.71,5.71,0,0,0,3.24,5.15,30.77,30.77,0,0,0,8.38,3q5.15,1.17,11.4,2.4t12.43,3.09a50.82,50.82,0,0,1,11.4,4.94,25.3,25.3,0,0,1,8.46,8.09,22.72,22.72,0,0,1,3.24,12.56,25.92,25.92,0,0,1-5.08,15.44q-5.07,7.08-15.22,11.33T213.69,144.34Z"/><path d="M272.82,142.42V46.35H302v96.07Z"/><path d="M322.69,142.42V46.35h24l42.52,65.33H376.52l41.63-65.33h24l.15,96.07H415.51l-.3-58.06h4.56l-31,48.59H375.79L343.87,84.36h5.59v58.06Z"/><path d="M510.53,144.34q-22.8,0-35.52-11.67T462.28,99.74V46.35h29.13V98.91q0,12.23,5.15,17.57t14.26,5.35q9.12,0,14.2-5.35t5.08-17.57V46.35h28.83V99.74q0,21.27-12.87,32.93T510.53,144.34Z"/><path d="M598.94,142.42V67.89H567.31V46.35h92.23V67.89H628.07v74.53Z"/><path d="M704.82,142.42V46.35h52.37q20.44,0,30.45,7t10,18.11a21.53,21.53,0,0,1-4.12,13,26.9,26.9,0,0,1-11.77,8.79,46.91,46.91,0,0,1-17.94,3.15l2.79-6.59a53.2,53.2,0,0,1,18.9,3.09,27.72,27.72,0,0,1,12.65,9,22.71,22.71,0,0,1,4.49,14.14q0,12.35-10.81,19.35t-31.7,7Zm28.68-19.63h24.42q7.65,0,11.48-2.4a9,9,0,0,0,0-14.68q-3.84-2.4-11.48-2.41H731.44V84.5h22.07q7.35,0,11-2.33a7.62,7.62,0,0,0,3.68-6.86,7.71,7.71,0,0,0-3.68-7.07q-3.67-2.26-11-2.27h-20Z"/><path d="M817.79,142.42V46.35h28.69v96.07Zm25.89-21.27-1.62-30.47,44.28-44.33h31.92L874.42,91,858.1,106.74Zm43.1,21.27-33.54-39.67,19-18.93,48.39,58.6Z"/><path d="M928.56,142.42V46.35h48.68q16.92,0,29.87,5.9a47.66,47.66,0,0,1,20.22,16.61q7.29,10.69,7.28,25.39t-7.28,25.59a47.52,47.52,0,0,1-20.22,16.68q-12.95,5.89-29.87,5.9Zm29.12-21.69h18.09a35.46,35.46,0,0,0,15.52-3.15,24,24,0,0,0,10.23-9.13,26.54,26.54,0,0,0,3.67-14.2,25.87,25.87,0,0,0-3.67-14.07,24.21,24.21,0,0,0-10.23-9A35.32,35.32,0,0,0,975.77,68H957.68Z"/></g></g></svg>